<svg version="1" xmlns="http://www.w3.org/2000/svg" width="832" height="832" viewBox="0 0 624.000000 624.000000"><path d="M91.5 132.5c50.3 50.4 91.5 91.9 91.5 92.2 0 .4-34.8 35.5-77.2 78-42.5 42.6-77.5 77.6-77.7 77.8-.7.8-.6 55.5.2 55.5.5 0 .5.5.2 1-.8 1.3-1 22.8-.3 23.6.4.3.3 1.8-.1 3.2-.4 1.5-.6 3.3-.5 3.9.1.7.2 2.7.3 4.4.1 2.8 6.6 9.7 54 57l53.9 53.9h94.1c51.7 0 94.1-.2 94.1-.4 0-.3-34.7-35.2-77.1-77.6l-77.1-77.2 77.2-77.1c42.4-42.5 77.4-77.7 77.8-78.4.4-.6.7-22.3.7-48.2v-47l-68-68-68-68.1H0l91.5 91.5z"/><path d="M299.1 41.5c.2.2 41.5 41.5 91.7 91.8l91.3 91.3-77.9 78-77.9 77.9.1 47.5.1 47.5 53.6 53.7 53.7 53.8h189.6l-77.6-77.5-77.5-77.6 77.9-77.9 77.8-77.9v-94.8l-68.2-68.1L487.5 41h-94.4c-51.9 0-94.2.2-94 .5z"/></svg>